Coordinates
version=1
nRows=17
nColumns=40
inDegrees=yes

Units are S.I. units (second, meters, Newtons, ...)
If the header above contains a line with 'inDegrees', this indicates whether rotational values are in degrees (yes) or radians (no).

endheader
time	pelvis_tilt	pelvis_list	pelvis_rotation	pelvis_tx	pelvis_ty	pelvis_tz	hip_flexion_r	hip_adduction_r	hip_rotation_r	knee_angle_r	knee_angle_r_beta	ankle_angle_r	subtalar_angle_r	mtp_angle_r	hip_flexion_l	hip_adduction_l	hip_rotation_l	knee_angle_l	knee_angle_l_beta	ankle_angle_l	subtalar_angle_l	mtp_angle_l	lumbar_extension	lumbar_bending	lumbar_rotation	arm_flex_r	arm_add_r	arm_rot_r	elbow_flex_r	pro_sup_r	wrist_flex_r	wrist_dev_r	arm_flex_l	arm_add_l	arm_rot_l	elbow_flex_l	pro_sup_l	wrist_flex_l	wrist_dev_l
      0.35000000	     22.26139520	     -0.76159619	     -0.74013980	      0.31081830	      0.90755737	     -0.15884656	    -26.38413284	      2.93419385	      0.74593656	      5.60924065	      0.09789972	      7.89685395	      0.00000000	      0.00000000	     -5.90264390	     -5.95110337	     -7.23575221	     50.90898812	      0.88852946	     12.49764344	      0.00000000	      0.00000000	    -38.81493846	     -1.76381423	      5.42711100	      0.94378548	     -5.36902086	    -14.46735371	     47.17100714	     88.62132773	     -4.27467256	     14.05426279	     -6.40539003	     -7.77787994	      1.38547325	     37.14803531	     89.32778285	      5.40538599	     16.03583820
      0.36000000	     21.95139329	     -0.58877911	     -0.82966096	      0.32169413	      0.90641701	     -0.15856738	    -27.07584350	      2.75306799	      0.84855203	      5.10780890	      0.08914808	      8.33152369	      0.00000000	      0.00000000	     -4.39775414	     -5.48641823	     -7.19777875	     48.94893178	      0.85432002	     12.94518339	      0.00000000	      0.00000000	    -38.46500114	     -2.14261804	      5.67588670	      1.62295429	     -5.55291599	    -14.46953846	     48.17945295	     88.56152883	     -4.08001049	     13.93874422	     -6.95305501	     -7.75274626	      1.45396628	     36.40468410	     89.33770646	      5.28170444	     16.09511572
      0.37000000	     21.85459178	     -0.17361079	     -1.24243718	      0.33263803	      0.90554825	     -0.15790142	    -27.90654399	      2.17551009	      0.95790317	      4.80454799	      0.08385518	      8.86996336	      0.00000000	      0.00000000	     -3.39449064	     -4.74822350	     -7.62493235	     46.46715320	      0.81100482	     13.02726243	      0.00000000	      0.00000000	    -38.33811589	     -2.91717772	      6.09744500	      2.22230235	     -5.68773255	    -14.72083961	     49.29564099	     88.51054238	     -3.58553519	     13.90998326	     -7.46797439	     -7.81996038	      1.87912709	     35.78512768	     89.33330843	      5.05547933	     16.02630094
      0.38000000	     21.47698434	     -0.03623086	     -1.27452607	      0.34327201	      0.90406510	     -0.15791336	    -28.38172821	      2.03551785	      0.95494541	      4.55866224	      0.07956367	      9.36811050	      0.00000000	      0.00000000	     -1.94798771	     -4.32228517	     -7.55637333	     44.10818033	      0.76983297	     13.39440897	      0.00000000	      0.00000000	    -37.96425560	     -3.21260076	      6.36168676	      2.86045563	     -5.93047966	    -14.60846835	     50.30264278	     88.43217480	     -3.34961460	     13.79430360	     -7.92382416	     -7.76281477	      1.90666768	     35.07634571	     89.33888921	      4.93949521	     16.08602378
      0.39000000	     21.20843308	      0.36455628	     -1.61405400	      0.35394447	      0.90274674	     -0.15753327	    -28.86428320	      1.48918248	      0.91039575	      4.52452063	      0.07896778	     10.02847949	      0.00000000	      0.00000000	     -0.85682776	     -3.61317014	     -7.94255088	     41.30222335	      0.72085979	     13.35360126	      0.00000000	      0.00000000	    -37.71632723	     -3.91885367	      6.72565149	      3.45847082	     -6.09181586	    -14.71844425	     51.34954047	     88.36673723	     -2.86883327	     13.72619559	     -8.37831876	     -7.80250780	      2.26617545	     34.53002027	     89.33186600	      4.73810183	     16.00723009
      0.40000000	     20.78806549	      0.55486193	     -1.65141801	      0.36439294	      0.90109340	     -0.15770773	    -29.12823025	      1.27976013	      0.75295413	      4.59078623	      0.08012434	     10.56675530	      0.00000000	      0.00000000	      0.43892429	     -3.11398940	     -7.89566944	     38.51420008	      0.67219960	     13.54730579	      0.00000000	      0.00000000	    -37.34156270	     -4.24771642	      6.96387684	      4.06006527	     -6.33508118	    -14.59603303	     52.34852087	     88.28577092	     -2.58011352	     13.60636595	     -8.76469001	     -7.74645943	      2.37362376	     33.87989376	     89.33250490	      4.58923322	     16.00897225
      0.41000000	     20.37685734	      0.83200988	     -1.78731927	      0.37478795	      0.89946485	     -0.15776257	    -29.32403863	      0.93926310	      0.55013491	      4.79455744	      0.08368081	     11.23140693	      0.00000000	      0.00000000	      1.59002512	     -2.52223403	     -7.94654378	     35.49957857	      0.61958453	     13.38470044	      0.00000000	      0.00000000	    -36.99240742	     -4.72622730	      7.27058997	      4.62023753	     -6.56706721	    -14.49777188	     53.32016499	     88.21885621	     -2.24056385	     13.48558815	     -9.11809254	     -7.73293200	      2.57827206	     33.33574392	     89.33098397	      4.38273923	     15.91444592
      0.42000000	     19.94334110	      0.99854674	     -1.79062540	      0.38512288	      0.89774655	     -0.15821170	    -29.44673319	      0.74875817	      0.27802629	      5.10721871	      0.08913778	     11.77189590	      0.00000000	      0.00000000	      2.70482552	     -2.02203503	     -7.78209605	     32.43594409	      0.56611402	     13.22916812	      0.00000000	      0.00000000	    -36.63539917	     -4.99556928	      7.49125298	      5.16532094	     -6.82737015	    -14.30809334	     54.29978742	     88.13555328	     -1.98999018	     13.35638589	     -9.45412491	     -7.64965173	      2.67134113	     32.77585285	     89.33016029	      4.20219536	     15.85778804
      0.43000000	     19.47961698	      0.89563914	     -1.67169884	      0.39534187	      0.89595774	     -0.15885412	    -29.51401584	      0.88096813	      0.10384473	      5.44766344	      0.09507966	     12.21338075	      0.00000000	      0.00000000	      3.81375575	     -1.80715304	     -7.31590451	     29.44420549	      0.51389833	     13.07400145	      0.00000000	      0.00000000	    -36.23755029	     -4.95741675	      7.78083399	      5.68225587	     -7.16595023	    -13.99365767	     55.21212083	     88.09750891	     -1.83156580	     13.22408928	     -9.75691731	     -7.51331999	      2.61173482	     32.28072995	     89.33018587	      4.09163484	     15.86757346
      0.44000000	     19.09857760	      1.01939137	     -1.65089616	      0.40569226	      0.89434472	     -0.15960294	    -29.58600827	      0.70837088	     -0.24746729	      6.00174334	      0.10475018	     12.64894325	      0.00000000	      0.00000000	      4.64529999	     -1.29925251	     -6.76141777	     26.27341591	      0.45855761	     12.64662126	      0.00000000	      0.00000000	    -35.94569525	     -5.15751346	      7.97965016	      6.15394428	     -7.44994517	    -13.69992279	     56.14785118	     88.01433912	     -1.67368787	     13.08259009	    -10.04424782	     -7.37965451	      2.60889264	     31.76223958	     89.32991633	      3.94516697	     15.80354820
      0.45000000	     18.72445548	      1.30342452	     -1.68276797	      0.41624579	      0.89276959	     -0.16029296	    -29.64058333	      0.34601411	     -0.68807153	      6.63091143	      0.11573124	     13.22289109	      0.00000000	      0.00000000	      5.35484831	     -0.67563400	     -6.47534544	     23.15711516	      0.40416790	     11.79139993	      0.00000000	      0.00000000	    -35.65226736	     -5.53644113	      8.12219961	      6.53997842	     -7.66523390	    -13.48957697	     57.09651777	     87.92525436	     -1.50780725	     12.91922263	    -10.31963526	     -7.30156730	      2.75121065	     31.28570066	     89.32390977	      3.64238056	     15.49867654
      0.46000000	     18.29854914	      1.04416635	     -1.59450485	      0.42683619	      0.89101492	     -0.16124747	    -29.67902060	      0.56311502	     -0.84360145	      7.15947980	      0.12495650	     13.51627417	      0.00000000	      0.00000000	      6.13388812	     -0.65889537	     -5.85889746	     20.45687451	      0.35703981	     11.49700613	      0.00000000	      0.00000000	    -35.25545982	     -5.32230215	      8.43948467	      6.89046709	     -8.01078628	    -13.08676111	     57.99306166	     87.91145581	     -1.37288352	     12.77506089	    -10.61074039	     -7.10559157	      2.67546627	     30.84117093	     89.32855526	      3.51157166	     15.45360252
      0.47000000	     17.99501176	      1.00649218	     -1.58223256	      0.43748785	      0.88958665	     -0.16226036	    -29.70622989	      0.48591437	     -1.08213213	      8.02449931	      0.14005393	     13.73077914	      0.00000000	      0.00000000	      6.62761242	     -0.38407065	     -4.94792004	     17.80418887	      0.31074172	     10.73972766	      0.00000000	      0.00000000	    -34.99058973	     -5.35486987	      8.72126781	      7.15429207	     -8.29830034	    -12.76299964	     58.85878703	     87.82003616	     -1.25555750	     12.61774027	    -10.80940581	     -6.91254055	      2.65131676	     30.35452768	     89.32038221	      3.31020700	     15.26933876
      0.48000000	     17.65813725	      1.05159522	     -1.63262501	      0.44851175	      0.88815140	     -0.16322284	    -29.73163505	      0.27915637	     -1.41067673	      8.84451659	      0.15436594	     13.98785258	      0.00000000	      0.00000000	      7.09988908	     -0.09646094	     -4.43324993	     15.50489127	      0.27061140	      9.79286748	      0.00000000	      0.00000000	    -34.66955634	     -5.48808342	      9.01505675	      7.27676271	     -8.52846857	    -12.53414297	     59.78248002	     87.72809336	     -1.14496692	     12.40344145	    -10.99577932	     -6.77993896	      2.90078195	     29.84040629	     89.31688430	      2.84919822	     14.68090587
      0.49000000	     17.33599205	      0.84322214	     -1.75069266	      0.45972870	      0.88681557	     -0.16420992	    -29.74993030	      0.26994808	     -1.38177974	      9.70386565	      0.16936441	     13.98332878	      0.00000000	      0.00000000	      7.52040126	     -0.12772289	     -3.89004896	     13.66271365	      0.23845934	      9.31000623	      0.00000000	      0.00000000	    -34.30614519	     -5.37994563	      9.60002682	      7.22859217	     -8.80625388	    -12.41873601	     60.73523637	     87.67076299	     -1.00125461	     12.14871125	    -10.98687306	     -6.61722225	      3.86842702	     28.93132097	     89.30229719	      1.42469656	     13.35401846
      0.50000000	     17.05420586	      0.62309604	     -1.84415074	      0.47103893	      0.88553013	     -0.16524774	    -29.76852594	      0.25708425	     -1.42265599	     10.66521143	      0.18614305	     13.87989230	      0.00000000	      0.00000000	      7.88510332	     -0.20251758	     -3.26778098	     12.27553496	      0.21424850	      8.89535853	      0.00000000	      0.00000000	    -33.99477427	     -5.28089790	      9.91658185	      7.29319716	     -9.03351034	    -12.02468384	     61.49191771	     87.62830411	     -0.86718523	     11.97781334	    -11.20506419	     -6.41239493	      3.83719953	     28.56937687	     89.30112143	      1.37686695	     13.33173022
      0.51000000	     16.76479260	      0.49921981	     -2.01221277	      0.48270467	      0.88431091	     -0.16624578	    -29.78208123	      0.09543377	     -1.37193350	     11.62650915	      0.20292087	     13.67269007	      0.00000000	      0.00000000	      8.20718946	     -0.21776175	     -3.06464134	     11.30355906	      0.19728432	      8.42509233	      0.00000000	      0.00000000	    -33.64765284	     -5.29062060	     10.30170986	      7.17112098	     -9.22830422	    -11.73084239	     62.31413570	     87.54270842	     -0.69459234	     11.68013745	    -11.35020145	     -6.26201480	      4.02655839	     28.13017484	     89.29929786	      1.32753956	     13.14808768
